<?xml version="1.0" encoding="utf-8"?>
<!-- Generator: Adobe Illustrator 27.8.1, SVG Export Plug-In . SVG Version: 6.00 Build 0)  -->
<svg version="1.1" id="Layer_1" xmlns="http://www.w3.org/2000/svg" xmlns:xlink="http://www.w3.org/1999/xlink" x="0px" y="0px"
	 viewBox="0 0 1000 107.2" style="enable-background:new 0 0 1000 107.2;" xml:space="preserve">
<style type="text/css">
	.st0{fill:#002E6D;}
	.st1{enable-background:new    ;}
	.st2{fill:#FFFFFF;}
	.st3{clip-path:url(#SVGID_00000140006397300572822720000006341903276142689710_);}
	.st4{fill:#00A0DF;}
	.st5{fill:#B14FC5;}
	.st6{fill:#3DAE2B;}
	.st7{fill:#ED40A9;}
	.st8{fill:#F38B00;}
	.st9{fill:none;}
</style>
<g id="Background">
	<rect y="0" class="st0" width="1000" height="107"/>
</g>
<g id="Text">
	<g class="st1">
		<path class="st2" d="M226.5,38.6h7.1l-12.5,28.7h-5.9l-4.8-17.2L203,67.3h-6l-8-28.7h7.6l4.5,18.2l7.9-18.2h5.1l4.7,18.5
			L226.5,38.6z"/>
		<path class="st2" d="M248.4,49.3c1.6,1.7,2.5,4.1,2.5,7.2c0,0.7,0,1.4-0.1,2.2h-12.3c0.3,2.4,1.8,3.7,4.4,3.7
			c1.9,0,3.8-0.6,5.6-1.9l1.5,4.8c-0.9,0.8-2,1.4-3.4,1.8c-1.3,0.4-2.8,0.6-4.3,0.6c-2.1,0-4-0.4-5.7-1.2c-1.6-0.8-2.9-2-3.8-3.4
			c-0.9-1.5-1.4-3.2-1.4-5.2c0-2.1,0.5-4,1.4-5.7c0.9-1.7,2.1-3,3.7-3.9c1.6-0.9,3.3-1.4,5.2-1.4C244.5,46.8,246.7,47.7,248.4,49.3z
			 M239.7,52.5c-0.6,0.6-1,1.5-1.2,2.7h6.5c-0.1-2.4-1.1-3.6-3-3.6C241,51.7,240.3,52,239.7,52.5z"/>
		<path class="st2" d="M256.7,67.1c-1.5-0.4-3.1-1-4.6-1.8l2.2-4.9c1.1,0.7,2.3,1.3,3.7,1.7c1.4,0.4,2.7,0.6,3.9,0.6
			c0.8,0,1.5-0.1,1.9-0.3c0.4-0.2,0.6-0.5,0.6-0.8c0-0.4-0.3-0.8-0.8-1c-0.5-0.2-1.4-0.5-2.6-0.9c-1.4-0.4-2.6-0.8-3.6-1.2
			c-1-0.4-1.8-1-2.5-1.8c-0.7-0.8-1.1-1.9-1.1-3.2c0-1.3,0.4-2.5,1.1-3.5c0.8-1,1.8-1.8,3.2-2.3c1.4-0.6,3-0.8,4.8-0.8
			c1.5,0,3.1,0.2,4.6,0.6s2.8,1,3.8,1.8l-2.2,4.7c-1-0.7-2.1-1.2-3.2-1.6c-1.1-0.4-2.2-0.5-3.2-0.5c-0.9,0-1.5,0.1-2,0.3
			c-0.4,0.2-0.7,0.5-0.7,0.8c0,0.4,0.3,0.8,0.8,1.1c0.6,0.3,1.4,0.6,2.7,0.9c1.5,0.4,2.7,0.8,3.6,1.2c1,0.4,1.8,1,2.5,1.8
			c0.7,0.8,1.1,1.9,1.1,3.2c0,2.1-0.8,3.7-2.4,4.8c-1.6,1.2-3.8,1.7-6.6,1.7C260,67.7,258.3,67.5,256.7,67.1z"/>
		<path class="st2" d="M282.7,59.2l0,0.6c0,1.8,1,2.6,2.9,2.6c0.5,0,1.1,0,1.9-0.1l-0.8,5.1c-0.8,0.1-1.7,0.2-2.4,0.2
			c-5.9,0-8.8-2.4-8.8-7.3c0-0.5,0-0.9,0-1.2l0.5-6.6h-3.7l0.4-5.3h3.7l0.4-5.8h7.2l-0.4,5.8h4.8l-0.4,5.3h-4.8L282.7,59.2z"/>
		<path class="st2" d="M306.2,66.9c-2.1-0.6-3.9-1.3-5.4-2.3l2.8-5.3c2.9,1.8,6,2.7,9.4,2.7c1.5,0,2.7-0.2,3.5-0.6
			c0.8-0.4,1.2-1,1.2-1.8c0-0.8-0.4-1.5-1.3-2c-0.9-0.5-2.3-1-4.2-1.5c-2-0.6-3.6-1.2-4.9-1.8c-1.3-0.6-2.4-1.4-3.3-2.5
			c-0.9-1.1-1.4-2.6-1.4-4.4c0-1.8,0.5-3.4,1.5-4.8c1-1.4,2.5-2.4,4.3-3.2s4.1-1.1,6.6-1.1c2.1,0,4.1,0.3,6,0.9
			c1.9,0.6,3.4,1.3,4.6,2.3l-2.7,5.3c-1.2-0.8-2.5-1.5-3.9-2c-1.4-0.5-2.8-0.7-4.2-0.7c-1.5,0-2.6,0.2-3.5,0.7
			c-0.9,0.5-1.3,1.1-1.3,2c0,0.9,0.4,1.5,1.3,2c0.9,0.5,2.3,1,4.2,1.5c2,0.6,3.6,1.2,4.9,1.7c1.3,0.6,2.4,1.4,3.3,2.5
			c0.9,1.1,1.4,2.5,1.4,4.3c0,2.9-1.1,5.1-3.3,6.7c-2.2,1.6-5.2,2.3-9.2,2.3C310.5,67.7,308.3,67.4,306.2,66.9z"/>
		<path class="st2" d="M345,49.3c1.6,1.7,2.5,4.1,2.5,7.2c0,0.7,0,1.4-0.1,2.2H335c0.3,2.4,1.8,3.7,4.4,3.7c1.9,0,3.8-0.6,5.6-1.9
			l1.5,4.8c-0.9,0.8-2,1.4-3.4,1.8c-1.3,0.4-2.8,0.6-4.3,0.6c-2.1,0-4-0.4-5.7-1.2c-1.6-0.8-2.9-2-3.8-3.4c-0.9-1.5-1.4-3.2-1.4-5.2
			c0-2.1,0.5-4,1.4-5.7c0.9-1.7,2.1-3,3.7-3.9c1.6-0.9,3.3-1.4,5.2-1.4C341.2,46.8,343.4,47.7,345,49.3z M336.3,52.5
			c-0.6,0.6-1,1.5-1.2,2.7h6.5c-0.1-2.4-1.1-3.6-3-3.6C337.7,51.7,336.9,52,336.3,52.5z"/>
		<path class="st2" d="M367.2,48.8c1.4,1.3,2.1,3.3,2.1,6c0,0.3,0,0.8-0.1,1.5l-0.9,11.2h-6.8l0.2-2.5c-0.5,0.9-1.2,1.6-2.1,2.1
			c-0.9,0.5-1.9,0.8-3.1,0.8c-1.3,0-2.5-0.3-3.6-0.8s-1.9-1.2-2.5-2.1c-0.6-0.9-0.9-1.9-0.9-3c0-1.5,0.4-2.8,1.1-3.7
			c0.8-0.9,2-1.6,3.6-2.1c1.7-0.4,3.9-0.7,6.6-0.7h1.5l0-0.3c0.1-1-0.2-1.7-0.7-2.2c-0.5-0.5-1.4-0.7-2.5-0.7c-0.9,0-2,0.2-3.2,0.5
			c-1.2,0.4-2.3,0.8-3.3,1.4l-1.5-4.8c1.1-0.7,2.5-1.3,4.3-1.8c1.7-0.5,3.4-0.7,5.1-0.7C363.6,46.8,365.8,47.5,367.2,48.8z
			 M361.1,61.8c0.6-0.7,1-1.6,1.1-2.7l0-0.4h-1.1c-1.6,0-2.8,0.2-3.5,0.5c-0.7,0.4-1.1,0.9-1.1,1.8c0,0.6,0.2,1,0.6,1.4
			c0.4,0.4,0.9,0.5,1.6,0.5C359.7,62.8,360.5,62.5,361.1,61.8z"/>
		<path class="st2" d="M382.1,59.2l0,0.6c0,1.8,1,2.6,2.9,2.6c0.5,0,1.1,0,1.9-0.1l-0.8,5.1c-0.8,0.1-1.7,0.2-2.4,0.2
			c-5.9,0-8.8-2.4-8.8-7.3c0-0.5,0-0.9,0-1.2l0.5-6.6h-3.7l0.4-5.3h3.7l0.4-5.8h7.2l-0.4,5.8h4.8l-0.4,5.3h-4.8L382.1,59.2z"/>
		<path class="st2" d="M397.8,59.2l0,0.6c0,1.8,1,2.6,2.9,2.6c0.5,0,1.1,0,1.9-0.1l-0.8,5.1c-0.8,0.1-1.7,0.2-2.4,0.2
			c-5.9,0-8.8-2.4-8.8-7.3c0-0.5,0-0.9,0-1.2l0.5-6.6h-3.7l0.4-5.3h3.7l0.4-5.8h7.2l-0.4,5.8h4.8l-0.4,5.3h-4.8L397.8,59.2z"/>
		<path class="st2" d="M404.6,67.3l2.3-28.7h7.2l-2.3,28.7H404.6z"/>
		<path class="st2" d="M432.9,49.3c1.6,1.7,2.5,4.1,2.5,7.2c0,0.7,0,1.4-0.1,2.2h-12.3c0.3,2.4,1.8,3.7,4.4,3.7
			c1.9,0,3.8-0.6,5.6-1.9l1.5,4.8c-0.9,0.8-2,1.4-3.4,1.8c-1.3,0.4-2.8,0.6-4.3,0.6c-2.1,0-4-0.4-5.7-1.2c-1.6-0.8-2.9-2-3.8-3.4
			c-0.9-1.5-1.4-3.2-1.4-5.2c0-2.1,0.5-4,1.4-5.7c0.9-1.7,2.1-3,3.7-3.9c1.6-0.9,3.3-1.4,5.2-1.4C429,46.8,431.2,47.7,432.9,49.3z
			 M424.2,52.5c-0.6,0.6-1,1.5-1.2,2.7h6.5c-0.1-2.4-1.1-3.6-3-3.6C425.5,51.7,424.7,52,424.2,52.5z"/>
		<path class="st2" d="M450,67.3l2.3-28.7h7.5l-1.8,22.6h12.2l-0.4,6.1H450z"/>
		<path class="st2" d="M472.8,67.3l1.6-20h7.2l-1.6,20H472.8z M475,37.3h7.6l-0.5,6.6h-7.5L475,37.3z"/>
		<path class="st2" d="M504,48.7c1.1,1.3,1.7,3.1,1.7,5.6c0,0.6,0,1.1,0,1.4l-0.9,11.7h-7.2l0.9-11.4c0.1-1.1-0.1-2-0.5-2.6
			s-1.1-0.9-2.1-0.9c-1.1,0-1.9,0.3-2.5,1c-0.6,0.7-0.9,1.6-1,2.8l-0.9,11.2h-7.2l1.6-20h7l-0.2,2.1c0.7-0.8,1.6-1.5,2.7-1.9
			c1.1-0.5,2.3-0.7,3.6-0.7C501.2,46.8,502.9,47.5,504,48.7z"/>
		<path class="st2" d="M532.8,47.3l-8.6,9.7l7.3,10.3h-8.7l-6.1-8.6l-0.7,8.6h-7.2l2.2-28.7h7.2L517,55.6l7.1-8.2H532.8z"/>
		<path class="st2" d="M566.8,44.4h-13.1l-0.4,5.5h12.3l-0.4,5.7h-12.3l-0.5,5.9h13.1l-0.5,5.8h-20.4l2.3-28.7h20.4L566.8,44.4z"/>
		<path class="st2" d="M591.2,47.3l-8.8,9.7l7.7,10.3h-8.3l-3.8-5.3l-4.6,5.3h-8.6l9.3-10.4l-7.2-9.6h8.3l3.4,4.7l4-4.7H591.2z"/>
		<path class="st2" d="M600.4,59.2l0,0.6c0,1.8,1,2.6,2.9,2.6c0.5,0,1.1,0,1.9-0.1l-0.8,5.1c-0.8,0.1-1.7,0.2-2.4,0.2
			c-5.9,0-8.8-2.4-8.8-7.3c0-0.5,0-0.9,0-1.2l0.5-6.6h-3.7l0.4-5.3h3.7l0.4-5.8h7.2l-0.4,5.8h4.8l-0.4,5.3h-4.8L600.4,59.2z"/>
		<path class="st2" d="M624,49.3c1.6,1.7,2.5,4.1,2.5,7.2c0,0.7,0,1.4-0.1,2.2H614c0.3,2.4,1.8,3.7,4.4,3.7c1.9,0,3.8-0.6,5.6-1.9
			l1.5,4.8c-0.9,0.8-2,1.4-3.4,1.8c-1.3,0.4-2.8,0.6-4.3,0.6c-2.1,0-4-0.4-5.7-1.2c-1.6-0.8-2.9-2-3.8-3.4c-0.9-1.5-1.4-3.2-1.4-5.2
			c0-2.1,0.5-4,1.4-5.7c0.9-1.7,2.1-3,3.7-3.9c1.6-0.9,3.3-1.4,5.2-1.4C620.1,46.8,622.4,47.7,624,49.3z M615.3,52.5
			c-0.6,0.6-1,1.5-1.2,2.7h6.5c-0.1-2.4-1.1-3.6-3-3.6C616.6,51.7,615.9,52,615.3,52.5z"/>
		<path class="st2" d="M648.8,48.7c1.1,1.3,1.7,3.1,1.7,5.6c0,0.6,0,1.1,0,1.4l-0.9,11.7h-7.2l0.9-11.4c0.1-1.1-0.1-2-0.5-2.6
			c-0.4-0.6-1.1-0.9-2.1-0.9c-1.1,0-1.9,0.3-2.5,1c-0.6,0.7-0.9,1.6-1,2.8l-0.9,11.2H629l1.6-20h7l-0.2,2.1c0.7-0.8,1.6-1.5,2.7-1.9
			c1.1-0.5,2.3-0.7,3.6-0.7C646,46.8,647.7,47.5,648.8,48.7z"/>
		<path class="st2" d="M657,67.1c-1.5-0.4-3.1-1-4.6-1.8l2.2-4.9c1.1,0.7,2.3,1.3,3.7,1.7c1.4,0.4,2.7,0.6,3.9,0.6
			c0.8,0,1.5-0.1,1.9-0.3s0.6-0.5,0.6-0.8c0-0.4-0.3-0.8-0.8-1s-1.4-0.5-2.6-0.9c-1.4-0.4-2.6-0.8-3.6-1.2s-1.8-1-2.5-1.8
			c-0.7-0.8-1.1-1.9-1.1-3.2c0-1.3,0.4-2.5,1.1-3.5c0.8-1,1.8-1.8,3.2-2.3c1.4-0.6,3-0.8,4.8-0.8c1.5,0,3.1,0.2,4.6,0.6
			s2.8,1,3.8,1.8l-2.2,4.7c-1-0.7-2.1-1.2-3.2-1.6s-2.2-0.5-3.2-0.5c-0.9,0-1.5,0.1-2,0.3c-0.4,0.2-0.7,0.5-0.7,0.8
			c0,0.4,0.3,0.8,0.8,1.1c0.6,0.3,1.4,0.6,2.7,0.9c1.5,0.4,2.7,0.8,3.6,1.2c1,0.4,1.8,1,2.5,1.8c0.7,0.8,1.1,1.9,1.1,3.2
			c0,2.1-0.8,3.7-2.4,4.8c-1.6,1.2-3.8,1.7-6.6,1.7C660.2,67.7,658.5,67.5,657,67.1z"/>
		<path class="st2" d="M673.5,67.3l1.6-20h7.2l-1.6,20H673.5z M675.7,37.3h7.6l-0.5,6.6h-7.5L675.7,37.3z"/>
		<path class="st2" d="M690,66.4c-1.7-0.8-2.9-2-3.8-3.5c-0.9-1.5-1.3-3.2-1.3-5.2c0-2.3,0.5-4.2,1.4-5.8c0.9-1.6,2.2-2.9,3.9-3.8
			s3.6-1.3,5.8-1.3s4.2,0.4,5.8,1.2c1.7,0.8,2.9,2,3.8,3.5s1.3,3.2,1.3,5.2c0,2.3-0.5,4.2-1.4,5.9c-0.9,1.6-2.2,2.9-3.9,3.8
			s-3.6,1.3-5.8,1.3S691.6,67.3,690,66.4z M698.8,60.7c0.6-1.1,1-2.5,1-4.2c0-1.5-0.3-2.6-0.9-3.3s-1.5-1.1-2.8-1.1
			c-1.4,0-2.5,0.5-3.1,1.6c-0.6,1.1-1,2.4-1,4.1c0,1.5,0.3,2.6,0.9,3.4c0.6,0.7,1.5,1.1,2.8,1.1C697.1,62.3,698.2,61.8,698.8,60.7z"
			/>
		<path class="st2" d="M729.2,48.7c1.1,1.3,1.7,3.1,1.7,5.6c0,0.6,0,1.1,0,1.4L730,67.3h-7.2l0.9-11.4c0.1-1.1-0.1-2-0.5-2.6
			c-0.4-0.6-1.1-0.9-2.1-0.9c-1.1,0-1.9,0.3-2.5,1c-0.6,0.7-0.9,1.6-1,2.8l-0.9,11.2h-7.2l1.6-20h7l-0.2,2.1
			c0.7-0.8,1.6-1.5,2.7-1.9c1.1-0.5,2.3-0.7,3.6-0.7C726.4,46.8,728.1,47.5,729.2,48.7z"/>
	</g>
</g>
<g id="Service_Lines">
	<g id="_x33__Line">
		<g>
			<g>
				<defs>
					<rect id="SVGID_1_" y="0" width="148" height="107"/>
				</defs>
				<clipPath id="SVGID_00000149365314056869728300000012015436863733321403_">
					<use xlink:href="#SVGID_1_"  style="overflow:visible;"/>
				</clipPath>
				<g style="clip-path:url(#SVGID_00000149365314056869728300000012015436863733321403_);">
					
						<rect x="-141.1" y="67.3" transform="matrix(0.7071 -0.7071 0.7071 0.7071 -52.0533 20.7328)" class="st4" width="280.3" height="11.8"/>
					
						<rect x="-151.3" y="60.9" transform="matrix(0.7069 -0.7073 0.7073 0.7069 -53.1837 5.2559)" class="st5" width="262.1" height="11.8"/>
					
						<rect x="-131" y="73.7" transform="matrix(0.7071 -0.7071 0.7071 0.7071 -51.005 36.163)" class="st6" width="298.3" height="11.8"/>
					<path class="st7" d="M-70.3,202.1l-8.4-8.4L55.4,59.6c8.2-8.2,19.2-12.7,30.9-12.7h20.5v11.8H86.3c-8.5,0-16.5,3.3-22.5,9.3
						L-70.3,202.1z"/>
					<path class="st8" d="M-47.3,58.7h-50.5V46.9h50.5c8.2,0,16.3-3.4,22.2-9.3l67.7-67.7l8.4,8.4L-16.7,46
						C-24.8,54.1-36,58.7-47.3,58.7z"/>
				</g>
			</g>
		</g>
		<g>
			<path class="st9" d="M136.4,82.4c16.3,0,29.6-13.3,29.6-29.6s-13.3-29.6-29.6-29.6s-29.6,13.3-29.6,29.6
				C106.8,69.1,120.1,82.4,136.4,82.4"/>
			<path class="st7" d="M136.4,85.4c-18,0-32.6-14.6-32.6-32.6c0-18,14.6-32.6,32.6-32.6S169,34.8,169,52.8
				C169,70.8,154.4,85.4,136.4,85.4z M136.4,26.2c-14.7,0-26.6,12-26.6,26.6s12,26.6,26.6,26.6s26.6-12,26.6-26.6
				S151.1,26.2,136.4,26.2z"/>
			<path class="st2" d="M140.2,62.7c0-1.1,0.9-2,2-2s2,0.9,2,2s-0.9,2-2,2C141.1,64.7,140.2,63.8,140.2,62.7 M128.8,59.1
				c-0.8,0-1.5-0.7-1.4-1.5L128,46c0.1-0.8,0.8-1.5,1.6-1.5h13.5c0.8,0,1.6,0.7,1.7,1.6l0.7,11.5c0,0.8-0.6,1.5-1.4,1.5H128.8z
				 M130.8,64.7c-1.1,0-2-0.9-2-2s0.9-2,2-2s2,0.9,2,2C132.8,63.8,131.9,64.7,130.8,64.7 M129.9,41.1c0-0.8,0.7-1.5,1.5-1.5h10.1
				c0.8,0,1.5,0.7,1.5,1.5v0.5c0,0.8-0.7,1.5-1.5,1.5h-10.1c-0.8,0-1.5-0.7-1.5-1.5V41.1z M136.4,33.3c0.7,0,3,0,4,0.1
				c-0.2,0.4-1,2.4-1.4,3.6h-5.1c-0.5-1.2-1.3-3.2-1.4-3.6C133.5,33.3,135.7,33.3,136.4,33.3 M143.6,67.1c0.9-0.2,1.9-0.9,2.3-1.7
				l1.1-2.2c0.5-1,0.9-2.7,0.8-3.8l-1.2-19.6c0-1.4-1.5-2.8-3.1-2.8h-3c0.5-1.2,1.3-3.3,1.4-3.6c1.3,0.1,1.5,0.3,1.6,0.3l0.1,0.2
				l-0.1-0.2c0,0.3,0.3,0.6,0.6,0.6s0.7-0.4,0.7-0.7c0-1-1.6-1.3-3-1.5c-1.1-0.1-2.9-0.3-5.5-0.3s-4.5,0.1-5.5,0.3
				c-1.4,0.2-3,0.5-3,1.5c0,0.3,0.4,0.7,0.7,0.7s0.6-0.2,0.6-0.6l-0.1,0.2l0.1-0.2c0,0,0.3-0.2,1.6-0.3c0.1,0.2,0.9,2.3,1.4,3.6
				h-2.8c-1.8,0-3.1,1.4-3.1,2.8L125,59.4c-0.1,1.1,0.3,2.8,0.8,3.8l1.1,2.2c0.4,0.8,1.3,1.5,2.2,1.7l-4.3,6.5h3.6l4.2-6.4h7.4
				l4.2,6.4h3.6L143.6,67.1z"/>
		</g>
	</g>
</g>
</svg>
